# xmcd
#
# Track frame offsets: 
#        150
#        19237
#        28600
#        42100
#        64262
#        85800
#        99225
#        111912
#        124075
#        135012
#        145650
#        171525
#        189700
#
# Disc length: 2735 seconds
#
# Revision: 2
# Processed by: cddbd v1.5.2PL0 Copyright (c) Steve Scherf et al.
# Submitted via: ExactAudioCopyFreeDBPlugin 1.0
#
DISCID=ab0aad0d
DTITLE=The Movers [of New England] - Love My Baby
DYEAR=1994
DGENRE=Blues
TTITLE0=Movin On
TTITLE1=Bump Miss Susie
TTITLE2=Put Me Down
TTITLE3=Love My baby
TTITLE4=Watching You
TTITLE5=Mister Blues is Coming to Town
TTITLE6=Nothing Left
TTITLE7=I Want You to Be My Baby
TTITLE8=You Don't Know
TTITLE9=Just Passing Through
TTITLE10=Always Have the Blues
TTITLE11=The Movers are Back
TTITLE12=R.M. Blues
EXTD=
EXTT0=
EXTT1=
EXTT2=
EXTT3=
EXTT4=
EXTT5=
EXTT6=
EXTT7=
EXTT8=
EXTT9=
EXTT10=
EXTT11=
EXTT12=
PLAYORDER=
